<?xml version="1.0" encoding="UTF-8" standalone="no"?>
<!DOCTYPE svg PUBLIC "-//W3C//DTD SVG 1.1//EN" "http://www.w3.org/Graphics/SVG/1.1/DTD/svg11.dtd">
<svg width="100%" height="100%" viewBox="0 0 440 440" version="1.1" xmlns="http://www.w3.org/2000/svg" xmlns:xlink="http://www.w3.org/1999/xlink" xml:space="preserve" xmlns:serif="http://www.serif.com/" style="fill-rule:evenodd;clip-rule:evenodd;stroke-linecap:round;stroke-linejoin:round;stroke-miterlimit:1.5;">
    <circle cx="220" cy="220" r="144" style="fill:rgb(136,136,136);stroke:black;stroke-width:0.33px;"/>
    <path d="M220,12C334.798,12 428,105.202 428,220C428,334.798 334.798,428 220,428C105.202,428 12,334.798 12,220C12,105.202 105.202,12 220,12ZM220,76C140.524,76 76,140.524 76,220C76,299.476 140.524,364 220,364C299.476,364 364,299.476 364,220C364,140.524 299.476,76 220,76Z" style="fill:rgb(206,206,206);stroke:black;stroke-width:6.67px;"/>
    <path d="M41.319,232.772C38.119,232.829 35.878,232.789 34.556,232.652C33.233,232.516 32.025,232.097 30.891,231.317C29.797,230.537 28.939,229.512 28.315,228.163C27.731,226.853 27.383,225.299 27.351,223.499C27.321,221.82 27.574,220.295 28.11,218.925C28.645,217.555 29.466,216.461 30.532,215.641C31.636,214.782 32.828,214.28 34.145,214.097C35.421,213.914 37.7,213.793 40.979,213.735L46.378,213.638C49.538,213.582 51.819,213.621 53.142,213.758C54.464,213.894 55.672,214.313 56.766,215.093C57.9,215.873 58.758,216.898 59.343,218.248C59.966,219.557 60.274,221.112 60.306,222.912C60.336,224.591 60.083,226.116 59.547,227.486C59.052,228.855 58.231,229.95 57.126,230.769C56.021,231.629 54.829,232.131 53.553,232.313C52.236,232.497 49.957,232.618 46.718,232.675L41.319,232.772ZM51.53,224.348C53.01,224.322 53.968,224.225 54.365,224.058C54.762,223.891 54.957,223.567 54.947,223.047C54.94,222.607 54.774,222.29 54.45,222.056C54.126,221.862 53.124,221.759 51.484,221.789L36.727,222.052C34.887,222.085 33.769,222.185 33.331,222.313C32.934,222.48 32.7,222.844 32.71,223.364C32.72,223.924 32.966,224.279 33.489,224.43C33.972,224.581 35.173,224.64 37.012,224.607L51.53,224.348ZM60.115,235.306L61.347,243.494C61.681,245.709 61.739,247.439 61.562,248.68C61.424,249.914 61.047,250.901 60.464,251.596C59.92,252.284 59.189,252.799 58.275,253.179C57.356,253.52 55.95,253.853 53.972,254.151L51.243,254.562C49.265,254.859 47.772,254.882 46.796,254.584C45.827,254.325 45.002,253.681 44.361,252.645C43.719,251.609 43.228,250.226 42.96,248.447L42.632,246.271L30.054,248.165L28.827,240.017L60.115,235.306ZM55.962,244.264L48.012,245.461L48.101,246.054C48.214,246.806 48.45,247.296 48.887,247.514C49.285,247.737 50.06,247.782 51.207,247.609L53.778,247.222C54.846,247.061 55.534,246.796 55.797,246.392C56.066,246.028 56.117,245.293 55.962,244.264ZM65.668,263.888L35.019,271.744L32.973,263.762L63.622,255.906L65.668,263.888ZM73.017,284.844L43.393,295.958L40.864,289.217L52.805,280.165L39.36,285.21L36.944,278.768L66.567,267.654L68.984,274.095L57.267,283.404L70.6,278.402L73.017,284.844ZM78.538,295.659L50.283,309.897L46.575,302.539L74.83,288.301L78.538,295.659ZM74.884,324.988C72.198,326.727 70.274,327.877 69.079,328.459C67.884,329.042 66.637,329.325 65.262,329.262C63.921,329.177 62.651,328.76 61.408,327.945C60.221,327.141 59.105,326.005 58.127,324.494C57.214,323.084 56.623,321.655 56.354,320.209C56.085,318.763 56.204,317.4 56.676,316.142C57.159,314.828 57.906,313.773 58.927,312.922C59.915,312.092 61.786,310.786 64.539,309.004L69.073,306.07C71.725,304.353 73.683,303.181 74.878,302.598C76.073,302.015 77.32,301.733 78.661,301.817C80.036,301.88 81.306,302.297 82.515,303.135C83.736,303.917 84.819,305.074 85.797,306.585C86.71,307.996 87.3,309.424 87.569,310.87C87.872,312.294 87.753,313.657 87.248,314.937C86.764,316.251 86.017,317.306 85.03,318.136C84.008,318.987 82.138,320.293 79.418,322.054L74.884,324.988ZM79.105,312.441C80.347,311.637 81.11,311.048 81.358,310.697C81.607,310.345 81.601,309.968 81.319,309.531C81.08,309.162 80.772,308.98 80.372,308.952C79.995,308.958 79.09,309.401 77.714,310.292L65.322,318.312C63.778,319.312 62.881,319.987 62.577,320.327C62.328,320.679 62.322,321.111 62.605,321.548C62.909,322.018 63.306,322.19 63.829,322.042C64.319,321.915 65.37,321.33 66.915,320.331L79.105,312.441ZM104.097,331.146L80.061,351.721L75.379,346.251L83.505,333.662L72.595,343L68.121,337.773L92.158,317.198L96.632,322.425L88.805,335.179L99.624,325.92L104.097,331.146ZM116.973,342.973L99.303,369.64L93.032,363.991L96.536,359.503L94.337,357.522L90.179,361.421L83.849,355.718L108.146,335.022L116.973,342.973ZM100.106,355.182C102.219,352.239 104.837,348.676 108.073,344.485C103.407,348.41 100.049,351.361 98.026,353.308L100.106,355.182ZM133.778,355.495L130.062,360.657L126.102,357.806L111.332,378.323L104.645,373.509L119.414,352.992L115.486,350.164L119.202,345.002L133.778,355.495ZM135.754,356.629L147.731,363.322L144.628,368.874L139.845,366.2L136.918,371.438L141.387,373.936L138.46,379.173L133.991,376.676L130.596,382.752L135.833,385.678L132.75,391.196L120.32,384.249L135.754,356.629ZM150.451,364.831L156.15,367.169C159.813,368.672 162.217,369.874 163.376,370.738C164.534,371.603 165.306,372.568 165.653,373.618C166,374.669 166.095,375.702 165.849,376.725C165.654,377.726 164.969,379.607 163.83,382.382L159.625,392.633C158.547,395.261 157.708,396.991 157.099,397.736C156.476,398.518 155.781,399.054 154.939,399.314C154.149,399.553 153.22,399.604 152.256,399.424C151.255,399.23 149.84,398.779 148.027,398.035L138.442,394.103L150.451,364.831ZM156.01,372.991L148.115,392.235C149.188,392.675 149.946,392.726 150.387,392.388C150.828,392.051 151.462,390.927 152.267,388.966L156.927,377.605C157.474,376.272 157.749,375.391 157.827,374.99C157.904,374.59 157.826,374.255 157.569,373.933C157.348,373.627 156.824,373.325 156.01,372.991ZM194.889,388.345L187.399,386.838L187.865,384.525C188.078,383.466 188.102,382.736 187.961,382.422C187.828,382.069 187.538,381.888 187.107,381.802C186.636,381.707 186.205,381.824 185.891,382.169C185.537,382.506 185.301,383.07 185.135,383.894C184.93,384.913 184.929,385.729 185.101,386.294C185.265,386.899 185.884,387.676 186.989,388.673C190.171,391.517 192.051,393.731 192.724,395.254C193.389,396.816 193.418,399.106 192.802,402.165C192.361,404.361 191.755,405.953 191.04,406.87C190.317,407.826 189.124,408.484 187.484,408.929C185.891,409.343 184.095,409.349 182.134,408.954C179.977,408.52 178.221,407.718 176.857,406.587C175.486,405.495 174.679,404.231 174.461,402.882C174.243,401.532 174.37,399.681 174.836,397.367L175.246,395.328L182.736,396.835L181.979,400.599C181.742,401.776 181.71,402.545 181.843,402.898C182.007,403.298 182.328,403.526 182.877,403.636C183.387,403.739 183.866,403.59 184.18,403.246C184.541,402.869 184.785,402.266 184.951,401.442C185.322,399.599 185.323,398.375 184.924,397.724C184.532,397.033 183.467,395.839 181.727,394.143C179.995,392.407 178.859,391.159 178.35,390.444C177.802,389.722 177.419,388.788 177.2,387.642C176.982,386.497 177.062,385.085 177.393,383.438C177.875,381.046 178.535,379.384 179.345,378.404C180.193,377.432 181.347,376.767 182.798,376.447C184.297,376.095 185.968,376.105 187.89,376.492C189.968,376.91 191.709,377.586 193.057,378.592C194.374,379.551 195.18,380.611 195.446,381.725C195.711,382.839 195.631,384.659 195.142,387.09L194.889,388.345ZM200.214,379.311L213.892,380.38L213.397,386.721L207.933,386.294L207.466,392.276L212.57,392.675L212.102,398.657L206.998,398.257L206.456,405.196L212.437,405.664L211.945,411.965L197.748,410.855L200.214,379.311ZM225.777,380.267L226.42,405.578L231.418,405.452L231.578,411.77L218.342,412.105L217.54,380.476L225.777,380.267ZM233.537,379.948L247.346,378.191L248.149,384.5L242.514,385.217L243.272,391.169L248.311,390.528L249.069,396.479L244.029,397.121L245.706,410.295L237.532,411.335L233.537,379.948ZM258.549,375.749L265.335,406.653L257.287,408.42L250.501,377.517L258.549,375.749ZM281.962,378.541L274.713,380.955L273.968,378.716C273.626,377.691 273.285,377.046 273.007,376.844C272.716,376.603 272.374,376.591 271.957,376.73C271.501,376.882 271.185,377.198 271.084,377.653C270.945,378.121 271.02,378.728 271.286,379.525C271.615,380.512 272.019,381.22 272.449,381.625C272.892,382.068 273.815,382.435 275.27,382.751C279.444,383.638 282.176,384.625 283.516,385.612C284.869,386.637 286.033,388.61 287.019,391.57C287.727,393.696 287.992,395.378 287.827,396.529C287.675,397.718 286.967,398.882 285.765,400.083C284.588,401.234 283.032,402.132 281.135,402.764C279.047,403.459 277.125,403.636 275.379,403.332C273.646,403.066 272.318,402.37 271.458,401.307C270.598,400.244 269.789,398.574 269.043,396.335L268.386,394.362L275.635,391.947L276.848,395.591C277.227,396.729 277.581,397.412 277.872,397.653C278.214,397.918 278.606,397.956 279.137,397.779C279.63,397.615 279.972,397.248 280.073,396.793C280.2,396.287 280.112,395.642 279.846,394.845C279.252,393.061 278.645,391.999 277.975,391.632C277.292,391.227 275.774,390.721 273.421,390.113C271.056,389.467 269.45,388.948 268.653,388.581C267.818,388.227 267.021,387.607 266.263,386.721C265.504,385.836 264.872,384.571 264.341,382.977C263.57,380.662 263.317,378.891 263.532,377.639C263.786,376.374 264.456,375.223 265.557,374.224C266.683,373.174 268.138,372.352 269.997,371.733C272.009,371.063 273.855,370.785 275.525,370.988C277.144,371.165 278.371,371.684 279.155,372.519C279.939,373.354 280.774,374.973 281.557,377.326L281.962,378.541ZM298.791,359.997L312.694,388.418L305.293,392.039L299.457,380.11L297.265,381.182L303.101,393.111L295.699,396.732L281.795,368.311L289.197,364.69L294.172,374.858L296.363,373.786L291.389,363.618L298.791,359.997ZM328.977,350.672L322.871,355.265L321.453,353.379C320.804,352.515 320.275,352.012 319.947,351.909C319.595,351.773 319.267,351.87 318.915,352.134C318.532,352.423 318.332,352.823 318.381,353.287C318.397,353.775 318.662,354.326 319.167,354.998C319.792,355.829 320.401,356.372 320.937,356.619C321.498,356.898 322.49,356.953 323.97,356.791C328.209,356.305 331.113,356.373 332.698,356.883C334.306,357.425 336.036,358.927 337.912,361.42C339.258,363.21 340.044,364.721 340.254,365.865C340.488,367.04 340.185,368.369 339.428,369.89C338.678,371.355 337.487,372.701 335.889,373.903C334.131,375.225 332.364,376.004 330.612,376.27C328.885,376.568 327.404,376.33 326.251,375.596C325.098,374.862 323.8,373.535 322.382,371.649L321.132,369.987L327.237,365.395L329.546,368.463C330.267,369.422 330.82,369.958 331.172,370.093C331.58,370.237 331.964,370.148 332.411,369.812C332.827,369.499 333.034,369.043 332.986,368.579C332.945,368.059 332.656,367.475 332.151,366.804C331.021,365.301 330.108,364.487 329.356,364.352C328.58,364.185 326.98,364.187 324.556,364.358C322.108,364.498 320.42,364.516 319.548,364.421C318.644,364.35 317.691,364.016 316.691,363.417C315.69,362.818 314.688,361.82 313.679,360.477C312.212,358.527 311.41,356.928 311.216,355.673C311.054,354.393 311.324,353.088 312.051,351.791C312.785,350.438 313.903,349.197 315.47,348.019C317.164,346.744 318.827,345.894 320.474,345.556C322.066,345.21 323.394,345.312 324.403,345.854C325.411,346.397 326.717,347.667 328.208,349.649L328.977,350.672ZM352.018,341.021C354.259,343.305 355.771,344.96 356.581,346.015C357.391,347.069 357.917,348.234 358.13,349.594C358.315,350.925 358.161,352.253 357.61,353.634C357.06,354.958 356.17,356.279 354.885,357.539C353.686,358.715 352.405,359.58 351.041,360.132C349.678,360.685 348.319,360.841 346.992,360.631C345.608,360.419 344.425,359.899 343.386,359.068C342.376,358.266 340.722,356.695 338.425,354.353L334.644,350.498C332.431,348.242 330.892,346.558 330.082,345.504C329.272,344.449 328.746,343.285 328.561,341.953C328.348,340.594 328.502,339.266 329.081,337.914C329.603,336.561 330.521,335.269 331.806,334.008C333.005,332.832 334.286,331.967 335.649,331.415C336.984,330.834 338.343,330.677 339.699,330.917C341.083,331.128 342.266,331.649 343.276,332.45C344.315,333.281 345.968,334.852 348.237,337.166L352.018,341.021ZM338.881,339.394C337.845,338.338 337.116,337.708 336.721,337.535C336.327,337.361 335.959,337.443 335.587,337.807C335.273,338.115 335.157,338.453 335.21,338.85C335.291,339.218 335.905,340.016 337.054,341.187L347.389,351.724C348.678,353.038 349.519,353.782 349.913,354.012C350.307,354.185 350.732,354.104 351.103,353.74C351.503,353.348 351.592,352.925 351.342,352.442C351.12,351.987 350.337,351.074 349.049,349.76L338.881,339.394ZM341.099,325.297L349.778,314.415L354.751,318.38L351.209,322.821L355.9,326.562L359.067,322.591L363.758,326.332L360.59,330.303L370.973,338.584L365.835,345.026L341.099,325.297ZM360.217,298.339L365.582,301.754L362.962,305.871L384.287,319.447L379.862,326.398L358.537,312.822L355.937,316.905L350.572,313.489L360.217,298.339ZM373.724,268.616L401.315,284.523L397.232,293.957C392.425,292.879 387.026,291.458 381.05,289.656C383.345,290.998 388.109,293.888 395.342,298.326L391.291,307.687L360.792,298.497L363.969,291.155L374.435,294.769L384.533,298.224C379.631,295.754 373.288,292.181 365.542,287.521L368.942,279.665C369.87,279.936 373.139,281.046 378.872,283.004L390.287,286.942C383.414,283.488 376.851,279.819 370.562,275.921L373.724,268.616ZM376.781,254.323L408.604,257.594L406.512,265.77L400.91,264.75L400.176,267.617L405.56,269.49L403.448,277.745L373.836,265.832L376.781,254.323ZM395.425,263.594C391.838,263.089 387.466,262.425 382.252,261.503C387.895,263.814 392.068,265.419 394.731,266.307L395.425,263.594ZM378.103,248.493L378.802,242.694C379.266,238.842 379.736,236.28 380.221,234.928C380.661,233.612 381.55,232.591 382.886,231.865C384.218,231.18 386.216,230.977 388.877,231.298C391.339,231.594 392.929,232.108 393.691,232.804C394.454,233.5 394.826,234.754 394.77,236.56C395.359,235.02 396.048,233.975 396.791,233.5C397.533,233.025 398.167,232.779 398.781,232.692C399.352,232.64 400.91,232.747 403.452,233.053L411.712,234.049L410.798,241.634L400.354,240.375C398.686,240.175 397.639,240.169 397.208,240.399C396.778,240.63 396.498,241.281 396.364,242.393L410.502,244.096L409.516,252.277L378.103,248.493ZM384.49,240.962L391.479,241.804C391.589,240.891 391.507,240.236 391.312,239.85C391.116,239.464 390.306,239.165 388.916,238.998L387.209,238.792C386.216,238.672 385.522,238.75 385.161,239.069C384.84,239.393 384.6,240.049 384.49,240.962ZM380.371,226.869L380.35,213.149L386.71,213.139L386.718,218.619L392.718,218.61L392.71,213.49L398.71,213.48L398.718,218.6L405.678,218.589L405.669,212.589L411.989,212.579L412.011,226.819L380.371,226.869Z"/>
    <path d="M65.814,139.849C68.729,141.171 70.736,142.169 71.872,142.859C73.008,143.55 73.919,144.446 74.609,145.637C75.262,146.812 75.598,148.106 75.583,149.592C75.548,151.026 75.195,152.579 74.452,154.218C73.759,155.748 72.876,157.017 71.804,158.024C70.733,159.032 69.522,159.669 68.208,159.951C66.841,160.254 65.55,160.196 64.281,159.796C63.05,159.414 60.94,158.545 57.953,157.191L53.034,154.961C50.156,153.656 48.113,152.642 46.977,151.951C45.841,151.261 44.929,150.364 44.276,149.19C43.586,147.999 43.251,146.705 43.302,145.235C43.301,143.785 43.69,142.248 44.433,140.609C45.127,139.079 46.009,137.81 47.081,136.803C48.116,135.779 49.327,135.142 50.677,134.876C52.044,134.573 53.335,134.631 54.567,135.014C55.836,135.414 57.945,136.282 60.896,137.62L65.814,139.849ZM52.976,143.077C51.628,142.466 50.721,142.142 50.291,142.123C49.86,142.103 49.546,142.312 49.331,142.786C49.15,143.186 49.163,143.544 49.356,143.895C49.564,144.209 50.426,144.731 51.919,145.408L65.362,151.503C67.038,152.262 68.091,152.652 68.542,152.724C68.972,152.744 69.339,152.515 69.554,152.041C69.785,151.531 69.715,151.104 69.308,150.744C68.937,150.4 67.877,149.832 66.201,149.072L52.976,143.077ZM52.319,126.004L56.705,118.981C57.892,117.081 58.972,115.728 59.913,114.901C60.82,114.053 61.749,113.548 62.643,113.399C63.504,113.229 64.394,113.314 65.336,113.619C66.256,113.958 67.541,114.619 69.237,115.678L71.578,117.14C73.275,118.2 74.424,119.153 74.971,120.014C75.54,120.84 75.748,121.866 75.562,123.07C75.376,124.275 74.85,125.644 73.897,127.171L72.732,129.037L83.52,135.775L79.156,142.764L52.319,126.004ZM61.298,121.897L68.117,126.156L68.435,125.647C68.838,125.002 68.978,124.476 68.787,124.027C68.63,123.599 68.07,123.06 67.086,122.446L64.88,121.069C63.964,120.497 63.269,120.251 62.807,120.387C62.366,120.489 61.849,121.015 61.298,121.897ZM65.491,105.806L74.058,95.089L79.026,99.06L75.604,103.341L80.291,107.087L83.488,103.088L88.174,106.834L84.977,110.834L90.414,115.179L94.16,110.493L99.097,114.439L90.205,125.562L65.491,105.806ZM91.595,76.985L113.834,99.49L108.713,104.551L95.575,97.345L105.668,107.559L100.775,112.395L78.535,89.89L83.429,85.054L96.71,91.949L86.701,81.82L91.595,76.985ZM125.69,63.611L119.349,67.872L118.033,65.913C117.43,65.017 116.929,64.486 116.607,64.365C116.262,64.211 115.93,64.29 115.565,64.536C115.166,64.803 114.946,65.192 114.97,65.658C114.961,66.146 115.196,66.711 115.664,67.409C116.244,68.272 116.823,68.846 117.346,69.122C117.89,69.431 118.878,69.538 120.364,69.455C124.624,69.195 127.52,69.417 129.075,70.011C130.653,70.637 132.301,72.229 134.041,74.818C135.29,76.677 135.995,78.228 136.144,79.381C136.314,80.568 135.942,81.878 135.104,83.357C134.277,84.78 133.017,86.06 131.357,87.176C129.531,88.403 127.726,89.086 125.962,89.259C124.221,89.465 122.756,89.149 121.643,88.354C120.531,87.56 119.306,86.166 117.989,84.207L116.829,82.481L123.17,78.22L125.312,81.407C125.981,82.403 126.505,82.967 126.849,83.121C127.249,83.286 127.637,83.218 128.102,82.905C128.534,82.615 128.765,82.171 128.741,81.705C128.728,81.184 128.471,80.585 128.002,79.888C126.954,78.328 126.085,77.466 125.341,77.291C124.575,77.083 122.977,77 120.548,77.042C118.096,77.051 116.409,76.98 115.544,76.839C114.645,76.72 113.711,76.335 112.744,75.684C111.776,75.033 110.829,73.983 109.892,72.589C108.531,70.563 107.815,68.924 107.688,67.66C107.595,66.373 107.934,65.085 108.728,63.829C109.533,62.516 110.716,61.336 112.343,60.243C114.102,59.06 115.808,58.3 117.471,58.05C119.079,57.788 120.4,57.961 121.378,58.557C122.357,59.152 123.593,60.49 124.976,62.548L125.69,63.611ZM151.705,60.191C153.126,63.059 154.048,65.102 154.491,66.356C154.934,67.609 155.072,68.88 154.852,70.239C154.615,71.562 154.056,72.776 153.103,73.917C152.169,75.005 150.913,75.984 149.3,76.783C147.795,77.529 146.308,77.953 144.841,78.055C143.374,78.156 142.033,77.883 140.837,77.27C139.587,76.64 138.624,75.777 137.895,74.666C137.184,73.59 136.1,71.582 134.644,68.643L132.247,63.804C130.844,60.972 129.904,58.894 129.461,57.64C129.019,56.386 128.881,55.115 129.118,53.793C129.338,52.434 129.897,51.219 130.867,50.114C131.783,48.99 133.057,48.047 134.67,47.248C136.175,46.502 137.662,46.079 139.129,45.977C140.579,45.839 141.919,46.112 143.133,46.761C144.383,47.392 145.346,48.254 146.057,49.33C146.787,50.442 147.87,52.449 149.309,55.353L151.705,60.191ZM139.723,54.566C139.066,53.239 138.568,52.415 138.247,52.127C137.927,51.84 137.551,51.803 137.085,52.033C136.691,52.229 136.475,52.514 136.402,52.907C136.365,53.283 136.701,54.232 137.429,55.702L143.981,68.928C144.797,70.577 145.366,71.545 145.669,71.886C145.99,72.173 146.419,72.229 146.885,71.998C147.387,71.749 147.603,71.375 147.516,70.838C147.446,70.336 146.985,69.226 146.168,67.577L139.723,54.566ZM167.692,34.963L174.441,55.018C175.206,57.293 175.666,58.911 175.821,59.871C176.013,60.82 175.878,61.92 175.489,63.149C175.088,64.339 174.357,65.429 173.348,66.317C172.3,67.218 170.987,67.956 169.395,68.491C167.613,69.091 165.919,69.324 164.35,69.176C162.794,69.067 161.502,68.615 160.501,67.897C159.499,67.179 158.751,66.334 158.28,65.311C157.809,64.287 156.98,62.076 155.845,58.702L149.874,40.96L157.683,38.332L165.249,60.813C165.696,62.14 166.052,62.948 166.281,63.251C166.56,63.579 166.927,63.667 167.344,63.526C167.837,63.36 168.076,63.069 168.088,62.601C168.099,62.133 167.856,61.159 167.358,59.681L159.92,37.579L167.692,34.963ZM174.727,33.131L180.462,32.033C184.273,31.303 186.857,30.972 188.292,31.023C189.681,31.042 190.923,31.578 192.021,32.631C193.079,33.691 193.88,35.533 194.383,38.165C194.85,40.601 194.844,42.272 194.412,43.21C193.981,44.147 192.9,44.884 191.162,45.379C192.809,45.471 194.014,45.811 194.692,46.373C195.37,46.936 195.797,47.465 196.067,48.024C196.29,48.552 196.662,50.069 197.143,52.583L198.707,60.755L191.204,62.191L189.226,51.859C188.91,50.209 188.597,49.21 188.246,48.87C187.896,48.53 187.191,48.461 186.091,48.671L188.768,62.658L180.675,64.207L174.727,33.131ZM183.842,36.925L185.166,43.839C186.069,43.666 186.668,43.389 186.976,43.085C187.285,42.782 187.323,41.919 187.06,40.544L186.737,38.855C186.549,37.873 186.264,37.235 185.85,36.988C185.444,36.781 184.746,36.752 183.842,36.925ZM219.815,41.52L211.587,41.97L211.288,36.498C211.198,34.861 211.064,33.867 210.884,33.516C210.663,33.128 210.292,32.947 209.693,32.98C209.014,33.017 208.588,33.281 208.454,33.769C208.281,34.259 208.258,35.302 208.345,36.9L209.148,51.558C209.231,53.076 209.367,54.11 209.591,54.538C209.777,55.009 210.19,55.226 210.829,55.191C211.468,55.156 211.854,54.895 211.987,54.407C212.163,53.957 212.182,52.834 212.088,51.116L211.871,47.162L220.099,46.712L220.165,47.91C220.344,51.185 220.231,53.515 219.866,54.897C219.461,56.281 218.528,57.534 216.987,58.66C215.447,59.786 213.558,60.41 211.241,60.537C208.845,60.668 206.824,60.338 205.218,59.545C203.612,58.751 202.508,57.61 201.904,56.08C201.342,54.589 200.935,52.288 200.765,49.172L200.26,39.946C200.135,37.67 200.123,35.988 200.22,34.821C200.318,33.694 200.736,32.549 201.438,31.469C202.138,30.349 203.173,29.491 204.498,28.818C205.861,28.102 207.403,27.738 209.2,27.639C211.597,27.508 213.62,27.878 215.268,28.709C216.876,29.543 217.98,30.684 218.536,32.056C219.132,33.425 219.489,35.569 219.651,38.524L219.815,41.52ZM226.051,27.944L239.739,28.872L239.309,35.218L233.841,34.847L233.435,40.833L238.544,41.179L238.137,47.166L233.029,46.819L232.558,53.763L238.544,54.169L238.117,60.475L223.909,59.511L226.051,27.944ZM272.132,44.93L264.713,43.105L265.276,40.813C265.534,39.765 265.59,39.037 265.462,38.717C265.344,38.359 265.062,38.166 264.635,38.061C264.169,37.946 263.733,38.045 263.404,38.376C263.037,38.697 262.777,39.251 262.576,40.067C262.328,41.077 262.292,41.892 262.44,42.464C262.578,43.074 263.163,43.877 264.225,44.921C267.282,47.898 269.067,50.19 269.674,51.74C270.272,53.329 270.203,55.618 269.458,58.648C268.923,60.823 268.25,62.388 267.497,63.274C266.734,64.198 265.514,64.804 263.856,65.179C262.247,65.525 260.452,65.454 258.51,64.977C256.373,64.451 254.653,63.575 253.339,62.387C252.015,61.237 251.263,59.94 251.102,58.583C250.942,57.225 251.148,55.381 251.712,53.089L252.209,51.069L259.628,52.894L258.711,56.623C258.424,57.788 258.359,58.555 258.477,58.913C258.624,59.32 258.935,59.562 259.479,59.695C259.984,59.82 260.469,59.692 260.797,59.36C261.174,59 261.444,58.407 261.644,57.592C262.093,55.766 262.147,54.543 261.775,53.875C261.414,53.169 260.4,51.931 258.734,50.162C257.078,48.354 255.996,47.058 255.518,46.322C255.001,45.577 254.658,44.628 254.489,43.474C254.319,42.32 254.459,40.913 254.861,39.282C255.443,36.912 256.174,35.28 257.025,34.335C257.913,33.401 259.095,32.785 260.559,32.527C262.071,32.24 263.74,32.321 265.643,32.789C267.702,33.295 269.412,34.045 270.716,35.108C271.991,36.121 272.752,37.215 272.97,38.339C273.187,39.464 273.029,41.279 272.437,43.687L272.132,44.93ZM292.077,61.866C290.909,64.845 290.018,66.902 289.387,68.072C288.756,69.243 287.909,70.199 286.755,70.95C285.616,71.664 284.341,72.066 282.856,72.129C281.423,72.168 279.854,71.897 278.178,71.24C276.614,70.627 275.301,69.812 274.239,68.794C273.177,67.776 272.478,66.6 272.127,65.303C271.754,63.953 271.745,62.661 272.078,61.374C272.396,60.123 273.153,57.972 274.35,54.918L276.321,49.89C277.474,46.948 278.381,44.854 279.011,43.684C279.642,42.513 280.49,41.557 281.629,40.843C282.782,40.092 284.057,39.69 285.527,39.665C286.975,39.588 288.53,39.896 290.206,40.553C291.77,41.166 293.083,41.982 294.145,42.999C295.221,43.98 295.92,45.156 296.256,46.491C296.63,47.84 296.639,49.132 296.321,50.383C295.988,51.67 295.23,53.822 294.048,56.838L292.077,61.866ZM288.186,49.213C288.726,47.836 289.002,46.913 288.999,46.482C288.996,46.051 288.771,45.748 288.287,45.558C287.877,45.398 287.521,45.43 287.181,45.64C286.878,45.865 286.401,46.752 285.803,48.279L280.416,62.021C279.745,63.734 279.411,64.806 279.362,65.26C279.365,65.691 279.612,66.045 280.097,66.235C280.618,66.44 281.041,66.347 281.379,65.922C281.704,65.533 282.216,64.445 282.887,62.732L288.186,49.213ZM305.248,47.78L317.483,54.419L314.45,60.009L309.458,57.3L306.596,62.574L311.062,64.997L308.2,70.27L303.735,67.848L297.402,79.521L290.16,75.591L305.248,47.78ZM336.214,66.91L332.603,72.146L328.586,69.376L314.235,90.188L307.451,85.51L321.802,64.698L317.818,61.951L321.428,56.715L336.214,66.91ZM364.183,92.203L339.722,112.6L332.279,105.509C334.952,101.37 338.151,96.794 341.907,91.809C339.854,93.499 335.496,96.971 328.833,102.225L321.448,95.189L340.609,69.743L346.401,75.262L339.394,83.834L332.663,92.117C336.674,88.37 342.219,83.653 349.268,77.993L355.466,83.898C354.89,84.676 352.72,87.36 348.901,92.064L341.262,101.415C346.878,96.158 352.588,91.267 358.42,86.712L364.183,92.203ZM375.916,107.812L353.681,130.812L348.545,124.115L352.809,120.341L351.008,117.992L346.209,121.067L341.024,114.307L368.687,98.385L375.916,107.812ZM357.107,116.742C359.72,114.234 362.944,111.208 366.89,107.677C361.586,110.686 357.747,112.975 355.403,114.521L357.107,116.742ZM381.75,116.129L384.673,121.184C386.616,124.543 387.779,126.874 388.203,128.246C388.641,129.564 388.544,130.914 387.911,132.296C387.258,133.644 385.782,135.006 383.462,136.348C381.315,137.589 379.735,138.133 378.708,138.035C377.68,137.936 376.629,137.157 375.589,135.679C376.044,137.264 376.12,138.514 375.812,139.34C375.504,140.165 375.144,140.742 374.705,141.181C374.28,141.565 372.97,142.416 370.754,143.697L363.551,147.862L359.727,141.249L368.834,135.982C370.288,135.141 371.128,134.516 371.334,134.074C371.54,133.631 371.373,132.942 370.812,131.973L358.485,139.102L354.36,131.969L381.75,116.129ZM381.166,125.985L375.071,129.51C375.532,130.306 375.991,130.78 376.379,130.972C376.767,131.163 377.594,130.916 378.806,130.215L380.295,129.354C381.161,128.853 381.669,128.374 381.766,127.902C381.828,127.451 381.626,126.782 381.166,125.985ZM394.047,138.523L399.41,151.152L393.555,153.638L391.414,148.594L385.891,150.939L387.892,155.651L382.369,157.996L380.368,153.284L373.962,156.004L376.307,161.527L370.49,163.997L364.924,150.89L394.047,138.523Z"/>
    <path d="M184.955,228.867C188.721,238.945 188.513,248.571 184.331,257.744C180.149,266.917 173.328,273.271 163.868,276.806C162.694,277.245 161.783,276.599 161.136,274.868C160.466,273.075 160.618,271.785 161.592,270.998C165.55,268.391 167.432,264.376 167.237,258.953C167.118,255.615 165.001,248.444 160.888,237.438C158.162,230.143 155.958,225.188 154.277,222.575C150.745,216.708 146.627,213.702 141.923,213.557C140.501,214.089 139.223,212.84 138.091,209.81C137.167,207.337 137.447,205.823 138.931,205.269C147.834,201.941 156.818,202.6 165.882,207.246C174.969,211.953 181.327,219.16 184.955,228.867ZM154.841,276.691C155.65,278.855 155.467,280.157 154.292,280.596C144.462,284.27 134.975,283.869 125.834,279.394C116.823,275.08 110.469,267.978 106.772,258.085C103.145,248.378 103.217,238.768 106.99,229.254C110.725,219.826 117.074,213.437 126.039,210.086C127.029,209.717 127.959,210.038 128.831,211.051C129.61,211.817 130.208,212.756 130.624,213.869C131.017,214.92 131.112,215.836 130.911,216.616C130.678,217.125 129.963,217.851 128.764,218.792C127.404,219.864 126.471,220.952 125.968,222.057C125.054,223.948 124.673,226.416 124.824,229.46C125.129,232.728 126.46,237.515 128.817,243.822L132.768,254.395C136.096,263.298 139.268,269.053 142.286,271.66C145.11,274.127 148.362,275.097 152.04,274.568C152.395,274.576 152.932,274.692 153.65,274.917C154.144,275.296 154.541,275.888 154.841,276.691ZM242.304,166.531L250.75,188.847L244.327,191.459C243.207,191.102 241.934,189.957 240.507,188.025C238.841,185.829 237.838,184.653 237.498,184.498C232.627,181.457 228.398,180.606 224.812,181.946C223.452,182.455 222.252,181.318 221.212,178.535C220.38,176.31 220.332,174.954 221.066,174.468L222.364,173.983C223.539,173.544 225.332,173.437 227.742,173.664C230.152,173.891 231.851,173.82 232.84,173.45C234.51,172.826 235.717,171.247 236.461,168.714L242.304,166.531ZM263.863,212.907C266.451,219.832 265.806,226.591 261.928,233.184C258.136,239.252 252.716,243.602 245.667,246.237C244.493,246.676 243.374,245.473 242.311,242.629C241.294,239.908 241.254,238.197 242.189,237.495C242.638,237.187 243.283,236.84 244.126,236.455C246.622,235.028 248.416,233.512 249.508,231.907C250.599,230.301 250.832,228.663 250.208,226.994C248.984,223.717 246.104,222.045 241.569,221.978C240.125,221.884 235.883,222.412 228.844,223.563C221.782,224.652 215.452,224.023 209.854,221.676C203.537,219.104 199.281,214.881 197.086,209.008C194.845,203.01 194.983,196.969 197.501,190.885C200.103,184.839 204.403,180.695 210.401,178.454C211.204,178.153 212.042,178.51 212.914,179.523C213.608,180.25 214.129,181.077 214.476,182.004C215.284,184.168 215.171,185.655 214.134,186.465C212.318,187.637 210.964,189.2 210.073,191.154C209.02,193.238 208.864,195.27 209.603,197.248C209.973,198.238 210.694,199.131 211.767,199.928C215.673,202.837 220.643,203.41 226.679,201.648C228.703,201.032 230.917,200.451 233.321,199.906C235.724,199.36 238.366,198.795 241.249,198.211C245.088,198.115 248.954,199.031 252.845,200.959C258.25,203.731 261.922,207.713 263.863,212.907ZM214.54,257.975L205.898,235.415L212.483,232.954C213.603,233.311 214.888,234.486 216.338,236.481C217.857,238.661 218.829,239.848 219.254,240.042C224.063,243.107 228.323,243.946 232.032,242.559C233.393,242.051 234.593,243.188 235.632,245.97C236.464,248.196 236.471,249.533 235.651,249.98C235.489,250.111 235.098,250.292 234.48,250.523C233.244,250.985 231.42,251.103 229.01,250.876C226.6,250.649 224.931,250.709 224.004,251.056C222.335,251.68 221.128,253.258 220.383,255.791L214.54,257.975ZM316.313,138.873L324.758,161.189L318.336,163.801C317.216,163.444 315.942,162.299 314.515,160.366C312.849,158.171 311.846,156.995 311.507,156.84C306.635,153.799 302.407,152.948 298.821,154.288C297.46,154.797 296.26,153.66 295.221,150.877C294.389,148.652 294.34,147.296 295.075,146.81L296.373,146.325C297.548,145.886 299.34,145.779 301.75,146.006C304.16,146.233 305.86,146.161 306.849,145.792C308.518,145.168 309.725,143.589 310.47,141.056L316.313,138.873ZM337.872,185.249C340.46,192.174 339.815,198.933 335.937,205.526C332.145,211.593 326.724,215.944 319.676,218.579C318.501,219.018 317.382,217.815 316.32,214.971C315.303,212.25 315.262,210.539 316.198,209.837C316.646,209.529 317.292,209.182 318.134,208.797C320.631,207.37 322.425,205.854 323.516,204.249C324.607,202.643 324.841,201.005 324.217,199.336C322.992,196.059 320.113,194.387 315.578,194.32C314.133,194.226 309.892,194.754 302.853,195.905C295.791,196.994 289.46,196.365 283.862,194.018C277.546,191.446 273.29,187.223 271.095,181.35C268.854,175.352 268.992,169.311 271.509,163.227C274.112,157.181 278.412,153.037 284.409,150.796C285.213,150.495 286.051,150.852 286.923,151.865C287.617,152.592 288.138,153.419 288.484,154.346C289.293,156.51 289.179,157.997 288.143,158.807C286.326,159.979 284.973,161.542 284.082,163.496C283.029,165.58 282.872,167.612 283.612,169.59C283.981,170.58 284.703,171.473 285.776,172.27C289.681,175.179 294.652,175.752 300.687,173.99C302.712,173.374 304.926,172.793 307.329,172.248C309.732,171.702 312.375,171.137 315.257,170.553C319.097,170.457 322.962,171.373 326.854,173.301C332.258,176.073 335.931,180.055 337.872,185.249ZM288.549,230.317L279.907,207.757L286.491,205.296C287.611,205.653 288.896,206.828 290.346,208.823C291.866,211.003 292.838,212.19 293.262,212.384C298.072,215.449 302.331,216.288 306.041,214.901C307.401,214.393 308.601,215.53 309.641,218.312C310.473,220.538 310.479,221.875 309.66,222.322C309.497,222.453 309.107,222.634 308.489,222.865C307.252,223.327 305.429,223.445 303.019,223.218C300.609,222.991 298.94,223.051 298.013,223.398C296.343,224.022 295.136,225.6 294.392,228.133L288.549,230.317Z"/>
    <path d="M394.606,195.569C388.976,196.699 383.488,193.046 382.359,187.416C381.229,181.786 384.882,176.298 390.512,175.168C396.142,174.038 401.63,177.692 402.76,183.321C403.89,188.951 400.236,194.439 394.606,195.569Z"/>
    <path d="M49.46,175.274C55.091,176.4 58.748,181.886 57.621,187.517C56.495,193.147 51.009,196.804 45.378,195.678C39.748,194.551 36.091,189.066 37.217,183.435C38.344,177.804 43.83,174.148 49.46,175.274Z"/>
</svg>
