<?xml version="1.0" encoding="UTF-8" standalone="no"?>
<!DOCTYPE svg PUBLIC "-//W3C//DTD SVG 1.1//EN" "http://www.w3.org/Graphics/SVG/1.1/DTD/svg11.dtd">
<svg width="100%" height="100%" viewBox="0 0 1467 1427" version="1.1" xmlns="http://www.w3.org/2000/svg" xmlns:xlink="http://www.w3.org/1999/xlink" xml:space="preserve" xmlns:serif="http://www.serif.com/" style="fill-rule:evenodd;clip-rule:evenodd;stroke-linejoin:round;stroke-miterlimit:2;">
    <path d="M959.705,1069.67C1056.78,999.328 1119.96,885.035 1119.96,756.101C1119.96,542.505 946.552,369.093 732.956,369.093C519.361,369.093 345.948,542.505 345.948,756.101C345.948,969.696 519.361,1143.11 732.956,1143.11C789.314,1143.11 842.875,1131.04 891.191,1109.34L698.676,775.892C687.753,756.973 694.245,732.744 713.165,721.821C732.084,710.897 756.313,717.389 767.236,736.309L959.705,1069.67Z" style="fill:white;"/>
    <path d="M941.401,1196.31C878.198,1226.31 807.523,1243.11 732.956,1243.11C658.39,1243.11 587.715,1226.31 524.511,1196.31L507.394,1225.95C496.471,1244.87 472.242,1251.37 453.322,1240.44C434.402,1229.52 427.91,1205.29 438.834,1186.37L455.998,1156.64C407.765,1123.21 365.849,1081.29 332.418,1033.06L302.688,1050.22C283.768,1061.15 259.539,1054.65 248.616,1035.74C237.692,1016.82 244.184,992.586 263.104,981.663L292.752,964.546C268.106,912.637 252.373,855.689 247.537,795.684L213.271,795.684C191.425,795.684 173.688,777.947 173.688,756.101C173.688,734.254 191.425,716.517 213.271,716.517L247.537,716.517C252.373,656.513 268.106,599.565 292.752,547.656L263.104,530.538C244.184,519.615 237.692,495.386 248.616,476.467C259.539,457.547 283.768,451.055 302.688,461.978L332.418,479.143C365.849,430.909 407.765,388.994 455.998,355.562L438.834,325.832C427.91,306.912 434.402,282.684 453.322,271.76C472.242,260.837 496.471,267.329 507.394,286.249L524.511,315.897C576.42,291.25 633.368,275.518 693.373,270.682L693.373,236.416C693.373,214.569 711.11,196.832 732.956,196.832C754.803,196.832 772.54,214.569 772.54,236.416L772.54,270.682C832.544,275.518 889.492,291.25 941.401,315.897L958.519,286.249C969.442,267.329 993.671,260.837 1012.59,271.76C1031.51,282.684 1038,306.912 1027.08,325.832L1009.91,355.562C1058.15,388.994 1100.06,430.909 1133.5,479.143L1163.23,461.978C1182.14,451.055 1206.37,457.547 1217.3,476.467C1228.22,495.386 1221.73,519.615 1202.81,530.538L1173.16,547.656C1197.81,599.565 1213.54,656.513 1218.38,716.517L1252.64,716.517C1274.49,716.517 1292.23,734.254 1292.23,756.101C1292.23,777.947 1274.49,795.684 1252.64,795.684L1218.38,795.684C1213.54,855.689 1197.81,912.637 1173.16,964.546L1202.81,981.663C1221.73,992.586 1228.22,1016.82 1217.3,1035.74C1206.37,1054.65 1182.14,1061.15 1163.23,1050.22L1133.5,1033.06C1100.06,1081.29 1058.15,1123.21 1009.91,1156.64L1027.08,1186.37C1038,1205.29 1031.51,1229.52 1012.59,1240.44C993.671,1251.37 969.442,1244.87 958.519,1225.95L941.401,1196.31ZM959.705,1069.67C1056.78,999.328 1119.96,885.035 1119.96,756.101C1119.96,542.505 946.552,369.093 732.956,369.093C519.361,369.093 345.948,542.505 345.948,756.101C345.948,969.696 519.361,1143.11 732.956,1143.11C789.314,1143.11 842.875,1131.04 891.191,1109.34L698.676,775.892C687.753,756.973 694.245,732.744 713.165,721.821C732.084,710.897 756.313,717.389 767.236,736.309L959.705,1069.67ZM390.148,1399.11L390.148,1310.24C373.611,1322.94 362.478,1329.29 356.749,1329.29C354.015,1329.29 351.59,1328.19 349.474,1326.01C347.358,1323.83 346.3,1321.31 346.3,1318.44C346.3,1315.12 347.342,1312.68 349.425,1311.12C351.508,1309.56 355.187,1307.54 360.46,1305.07C368.338,1301.36 374.637,1297.45 379.357,1293.35C384.077,1289.25 388.26,1284.66 391.905,1279.58C395.551,1274.5 397.928,1271.38 399.034,1270.2C400.141,1269.03 402.224,1268.44 405.284,1268.44C408.735,1268.44 411.502,1269.78 413.585,1272.45C415.669,1275.12 416.71,1278.8 416.71,1283.48L416.71,1395.3C416.71,1408.39 412.251,1414.93 403.331,1414.93C399.36,1414.93 396.17,1413.6 393.761,1410.93C391.352,1408.26 390.148,1404.32 390.148,1399.11ZM127.016,1147.42L177.992,1147.42C183.07,1147.42 186.944,1148.46 189.613,1150.54C192.282,1152.62 193.617,1155.46 193.617,1159.04C193.617,1162.23 192.559,1164.93 190.443,1167.14C188.327,1169.36 185.121,1170.46 180.824,1170.46L108.949,1170.46C104.066,1170.46 100.258,1169.11 97.523,1166.41C94.789,1163.71 93.422,1160.54 93.422,1156.89C93.422,1154.55 94.301,1151.44 96.058,1147.56C97.816,1143.69 99.737,1140.65 101.82,1138.43C110.479,1129.45 118.292,1121.75 125.258,1115.34C132.224,1108.92 137.204,1104.71 140.199,1102.69C145.538,1098.91 149.981,1095.12 153.529,1091.31C157.077,1087.51 159.779,1083.6 161.635,1079.59C163.49,1075.59 164.418,1071.67 164.418,1067.83C164.418,1063.66 163.425,1059.93 161.439,1056.64C159.454,1053.36 156.752,1050.8 153.334,1048.98C149.916,1047.16 146.189,1046.25 142.152,1046.25C133.624,1046.25 126.918,1049.99 122.035,1057.47C121.384,1058.45 120.294,1061.12 118.764,1065.48C117.234,1069.85 115.508,1073.2 113.588,1075.54C111.667,1077.88 108.851,1079.06 105.141,1079.06C101.885,1079.06 99.183,1077.98 97.035,1075.84C94.887,1073.69 93.812,1070.76 93.812,1067.05C93.812,1062.55 94.822,1057.87 96.84,1052.98C98.858,1048.1 101.869,1043.67 105.873,1039.7C109.877,1035.73 114.955,1032.52 121.107,1030.08C127.26,1027.64 134.47,1026.42 142.738,1026.42C152.699,1026.42 161.195,1027.98 168.226,1031.11C172.784,1033.19 176.788,1036.06 180.238,1039.7C183.689,1043.35 186.374,1047.56 188.295,1052.35C190.215,1057.13 191.176,1062.1 191.176,1067.24C191.176,1075.31 189.174,1082.65 185.17,1089.26C181.166,1095.87 177.081,1101.05 172.914,1104.79C168.747,1108.53 161.765,1114.41 151.967,1122.42C142.169,1130.42 135.447,1136.64 131.801,1141.07C130.238,1142.83 128.643,1144.94 127.016,1147.42ZM45.02,740.769C51.009,740.769 56.169,739.011 60.498,735.495C64.827,731.98 66.992,726.934 66.992,720.359C66.992,715.346 65.267,711.032 61.816,707.419C58.366,703.806 53.711,701.999 47.852,701.999C43.88,701.999 40.609,702.553 38.037,703.659C35.465,704.766 33.431,706.231 31.934,708.054C30.436,709.877 29.02,712.221 27.686,715.085C26.351,717.95 25.13,720.652 24.023,723.191C23.372,724.558 22.201,725.632 20.508,726.413C18.815,727.195 16.862,727.585 14.648,727.585C12.044,727.585 9.652,726.527 7.471,724.411C5.29,722.295 4.199,719.48 4.199,715.964C4.199,712.579 5.225,709.014 7.275,705.271C9.326,701.527 12.321,697.963 16.26,694.577C20.199,691.192 25.098,688.474 30.957,686.423C36.816,684.372 43.359,683.347 50.586,683.347C56.901,683.347 62.663,684.21 67.871,685.935C73.079,687.66 77.604,690.15 81.445,693.406C85.286,696.661 88.184,700.437 90.137,704.734C92.09,709.031 93.066,713.653 93.066,718.601C93.066,725.111 91.65,730.694 88.818,735.349C85.986,740.004 81.934,744.545 76.66,748.972C81.738,751.706 86.019,754.831 89.502,758.347C92.985,761.863 95.605,765.753 97.363,770.017C99.121,774.281 100,778.887 100,783.835C100,789.76 98.812,795.489 96.436,801.023C94.059,806.557 90.56,811.488 85.938,815.818C81.315,820.147 75.83,823.532 69.482,825.974C63.135,828.415 56.12,829.636 48.438,829.636C40.625,829.636 33.626,828.236 27.441,825.437C21.257,822.637 16.162,819.138 12.158,814.939C8.154,810.739 5.127,806.394 3.076,801.902C1.025,797.409 0,793.698 0,790.769C0,786.993 1.221,783.949 3.662,781.638C6.104,779.327 9.147,778.171 12.793,778.171C14.616,778.171 16.374,778.708 18.066,779.782C19.759,780.857 20.866,782.142 21.387,783.64C24.772,792.689 28.402,799.411 32.275,803.806C36.149,808.2 41.602,810.398 48.633,810.398C52.669,810.398 56.559,809.405 60.303,807.419C64.046,805.434 67.139,802.488 69.58,798.581C72.021,794.675 73.242,790.15 73.242,785.007C73.242,777.39 71.159,771.417 66.992,767.087C62.826,762.758 57.031,760.593 49.609,760.593C48.307,760.593 46.289,760.723 43.555,760.984C40.82,761.244 39.063,761.374 38.281,761.374C34.701,761.374 31.934,760.479 29.98,758.689C28.027,756.898 27.051,754.408 27.051,751.218C27.051,748.093 28.223,745.57 30.566,743.65C32.91,741.729 36.393,740.769 41.016,740.769L45.02,740.769ZM153.456,473.337L153.456,455.173L104.433,455.173C98.248,455.173 93.609,453.773 90.517,450.974C87.425,448.174 85.878,444.366 85.878,439.548C85.878,438.311 86.106,437.058 86.562,435.788C87.018,434.519 87.701,433.184 88.613,431.784C89.524,430.385 90.468,429.034 91.445,427.732C92.421,426.43 93.626,424.835 95.058,422.947L146.816,353.708C150.201,349.151 152.984,345.847 155.165,343.796C157.346,341.745 159.967,340.72 163.027,340.72C172.923,340.72 177.87,346.384 177.87,357.712L177.87,433.298L182.07,433.298C187.083,433.298 191.103,433.982 194.13,435.349C197.158,436.716 198.671,439.711 198.671,444.333C198.671,448.109 197.434,450.86 194.96,452.585C192.486,454.311 188.775,455.173 183.828,455.173L177.87,455.173L177.87,473.337C177.87,478.35 176.764,482.077 174.55,484.519C172.337,486.96 169.374,488.181 165.663,488.181C162.018,488.181 159.072,486.928 156.826,484.421C154.579,481.915 153.456,478.22 153.456,473.337ZM111.464,433.298L153.456,433.298L153.456,376.56L111.464,433.298ZM421.302,115.354L374.915,115.354L369.349,146.994C378.593,142.046 387.122,139.572 394.935,139.572C401.185,139.572 407.028,140.744 412.464,143.088C417.9,145.432 422.669,148.671 426.77,152.805C430.872,156.939 434.095,161.838 436.438,167.502C438.782,173.166 439.954,179.253 439.954,185.764C439.954,195.204 437.838,203.798 433.606,211.545C429.375,219.292 423.271,225.445 415.296,230.002C407.321,234.559 398.125,236.838 387.708,236.838C376.054,236.838 366.598,234.689 359.339,230.393C352.08,226.096 346.937,221.164 343.909,215.598C340.882,210.031 339.368,205.165 339.368,200.998C339.368,198.459 340.426,196.05 342.542,193.772C344.658,191.493 347.311,190.354 350.501,190.354C355.97,190.354 360.039,193.511 362.708,199.826C365.312,205.62 368.828,210.129 373.255,213.352C377.682,216.574 382.63,218.186 388.099,218.186C393.112,218.186 397.506,216.884 401.282,214.279C405.058,211.675 407.972,208.094 410.022,203.537C412.073,198.98 413.099,193.804 413.099,188.01C413.099,181.76 411.992,176.421 409.778,171.994C407.565,167.567 404.603,164.263 400.892,162.082C397.181,159.901 393.047,158.811 388.489,158.811C382.89,158.811 378.886,159.494 376.478,160.861C374.069,162.229 370.602,164.621 366.077,168.039C361.552,171.457 357.825,173.166 354.895,173.166C351.705,173.166 348.873,172.01 346.399,169.699C343.925,167.388 342.688,164.768 342.688,161.838C342.688,161.512 343.047,159.299 343.763,155.197L351.966,108.42C352.877,102.821 354.57,98.752 357.044,96.213C359.518,93.674 363.554,92.404 369.153,92.404L420.716,92.404C430.872,92.404 435.95,96.278 435.95,104.025C435.95,107.411 434.713,110.145 432.239,112.229C429.765,114.312 426.119,115.354 421.302,115.354ZM707.956,66.602C712.383,61.328 717.201,57.422 722.409,54.883C727.618,52.344 733.445,51.074 739.89,51.074C746.075,51.074 751.788,52.23 757.029,54.541C762.269,56.852 766.859,60.14 770.798,64.404C774.737,68.669 777.781,73.698 779.929,79.492C782.077,85.286 783.152,91.341 783.152,97.656C783.152,106.836 781.052,115.169 776.853,122.656C772.654,130.143 766.794,135.986 759.275,140.186C751.755,144.385 743.243,146.484 733.738,146.484C722.8,146.484 713.36,143.815 705.417,138.477C697.475,133.138 691.404,125.244 687.204,114.795C683.005,104.346 680.906,91.569 680.906,76.465C680.906,64.16 682.175,53.158 684.714,43.457C687.253,33.757 690.899,25.716 695.652,19.336C700.404,12.956 706.166,8.138 712.937,4.883C719.708,1.628 727.422,0 736.081,0C744.415,0 751.755,1.628 758.103,4.883C764.45,8.138 769.236,12.174 772.458,16.992C775.681,21.81 777.292,26.432 777.292,30.859C777.292,33.529 776.283,35.954 774.265,38.135C772.247,40.316 769.675,41.406 766.55,41.406C763.816,41.406 761.277,40.544 758.933,38.818C756.589,37.093 754.864,34.701 753.757,31.641C752.26,27.734 749.883,24.593 746.628,22.217C743.373,19.84 739.597,18.652 735.3,18.652C731.85,18.652 728.415,19.645 724.997,21.631C721.579,23.617 718.698,26.302 716.355,29.688C711.602,36.589 708.803,48.893 707.956,66.602ZM734.323,127.246C740.899,127.246 746.335,124.561 750.632,119.189C754.929,113.818 757.077,106.771 757.077,98.047C757.077,92.122 756.068,87.028 754.05,82.764C752.032,78.499 749.265,75.244 745.749,72.998C742.234,70.752 738.36,69.629 734.128,69.629C730.092,69.629 726.234,70.703 722.556,72.852C718.878,75 715.915,78.109 713.669,82.178C711.423,86.247 710.3,91.016 710.3,96.484C710.3,105.273 712.579,112.598 717.136,118.457C721.693,124.316 727.422,127.246 734.323,127.246ZM1037.34,89.122L1102.38,89.122C1108.63,89.122 1113.15,90.098 1115.95,92.051C1118.75,94.004 1120.15,97.227 1120.15,101.719C1120.15,104.454 1118.51,108.067 1115.22,112.559C1111.93,117.051 1108.19,122.015 1103.99,127.452C1099.79,132.888 1095.46,139.642 1091,147.715C1086.54,155.788 1082.46,165.651 1078.75,177.305C1077.18,182.448 1076.08,186.713 1075.43,190.098C1074.78,193.484 1074.06,197.878 1073.28,203.282C1072.5,208.685 1071.81,212.819 1071.23,215.684C1069.86,222.325 1067.92,226.931 1065.42,229.502C1062.91,232.074 1059.57,233.36 1055.41,233.36C1051.43,233.36 1048.25,231.976 1045.84,229.209C1043.43,226.442 1042.22,222.357 1042.22,216.954C1042.22,212.787 1043.1,207.123 1044.86,199.961C1046.62,192.8 1049.48,184.222 1053.45,174.229C1057.42,164.235 1062.39,153.982 1068.35,143.467C1074.3,132.953 1081.38,122.487 1089.59,112.071L1037.34,112.071C1031.87,112.071 1027.79,111.078 1025.08,109.092C1022.38,107.107 1021.03,103.998 1021.03,99.766C1021.03,95.274 1022.46,92.377 1025.33,91.075C1028.19,89.773 1032.2,89.122 1037.34,89.122ZM1278.16,378.929C1278.16,372.419 1279.94,366.283 1283.49,360.521C1287.03,354.759 1292.24,350.153 1299.11,346.703C1305.98,343.252 1314,341.527 1323.18,341.527C1330.93,341.527 1337.73,342.536 1343.59,344.554C1349.45,346.573 1354.34,349.356 1358.24,352.904C1362.15,356.452 1365.05,360.456 1366.93,364.916C1368.82,369.375 1369.77,374.112 1369.77,379.125C1369.77,385.505 1368.12,391.201 1364.83,396.214C1361.55,401.227 1356.65,405.329 1350.14,408.519C1355.67,410.668 1360.26,413.483 1363.91,416.966C1367.55,420.45 1370.3,424.486 1372.16,429.076C1374.01,433.666 1374.94,438.76 1374.94,444.359C1374.94,452.562 1372.96,460 1368.98,466.673C1365.01,473.347 1359.19,478.571 1351.5,482.347C1343.82,486.123 1334.77,488.011 1324.36,488.011C1313.55,488.011 1304.3,486.123 1296.62,482.347C1288.94,478.571 1283.14,473.379 1279.24,466.771C1275.33,460.163 1273.38,452.757 1273.38,444.554C1273.38,427.041 1281.65,415.03 1298.18,408.519C1284.84,402.269 1278.16,392.406 1278.16,378.929ZM1348.18,443.578C1348.18,438.5 1347.14,434.073 1345.06,430.297C1342.98,426.52 1340.05,423.623 1336.27,421.605C1332.49,419.587 1328.26,418.578 1323.57,418.578C1316.93,418.578 1311.37,420.791 1306.88,425.218C1302.38,429.645 1300.14,435.83 1300.14,443.773C1300.14,448.851 1301.19,453.327 1303.31,457.201C1305.43,461.075 1308.31,464.069 1311.95,466.185C1315.6,468.301 1319.67,469.359 1324.16,469.359C1328.72,469.359 1332.82,468.285 1336.46,466.136C1340.11,463.988 1342.98,460.961 1345.06,457.054C1347.14,453.148 1348.18,448.656 1348.18,443.578ZM1323.77,360.179C1317.65,360.179 1312.72,362.084 1308.98,365.892C1305.23,369.701 1303.36,374.6 1303.36,380.589C1303.36,386.123 1305.28,390.729 1309.12,394.408C1312.96,398.086 1317.91,399.925 1323.96,399.925C1327.03,399.925 1329.81,399.437 1332.31,398.461C1334.82,397.484 1336.97,396.133 1338.76,394.408C1340.55,392.683 1341.93,390.632 1342.91,388.255C1343.89,385.879 1344.38,383.259 1344.38,380.394C1344.38,376.553 1343.51,373.102 1341.79,370.043C1340.06,366.983 1337.64,364.574 1334.51,362.816C1331.39,361.058 1327.81,360.179 1323.77,360.179ZM1439.64,764.695C1435.35,769.773 1430.55,773.598 1425.24,776.169C1419.93,778.741 1414.06,780.027 1407.61,780.027C1401.49,780.027 1395.78,778.838 1390.47,776.462C1385.17,774.086 1380.58,770.766 1376.7,766.501C1372.83,762.237 1369.85,757.256 1367.77,751.56C1365.68,745.863 1364.64,739.89 1364.64,733.64C1364.64,726.934 1365.82,720.57 1368.16,714.548C1370.5,708.526 1373.86,703.301 1378.22,698.874C1382.58,694.447 1387.77,690.997 1393.79,688.523C1399.82,686.049 1406.47,684.812 1413.76,684.812C1422.16,684.812 1429.65,686.342 1436.23,689.402C1442.8,692.462 1448.33,696.905 1452.83,702.732C1457.32,708.559 1460.77,715.899 1463.18,724.753C1465.59,733.607 1466.79,743.633 1466.79,754.831C1466.79,767.331 1465.52,778.35 1462.98,787.888C1460.44,797.426 1456.75,805.434 1451.9,811.911C1447.05,818.389 1441.24,823.207 1434.47,826.364C1427.7,829.522 1420.01,831.101 1411.42,831.101C1402.96,831.101 1395.6,829.489 1389.35,826.267C1383.1,823.044 1378.35,819.04 1375.09,814.255C1371.84,809.47 1370.21,804.864 1370.21,800.437C1370.21,797.702 1371.22,795.261 1373.24,793.113C1375.26,790.964 1377.83,789.89 1380.95,789.89C1383.82,789.89 1386.39,790.687 1388.67,792.282C1390.94,793.878 1392.67,796.27 1393.84,799.46C1395.28,803.366 1397.65,806.508 1400.97,808.884C1404.29,811.26 1408.04,812.448 1412.2,812.448C1415.91,812.448 1419.43,811.504 1422.75,809.616C1426.07,807.728 1428.9,805.059 1431.25,801.609C1435.93,794.642 1438.73,782.338 1439.64,764.695ZM1437.4,734.812C1437.4,730.385 1436.8,726.299 1435.59,722.556C1434.39,718.812 1432.69,715.573 1430.51,712.839C1428.33,710.105 1425.73,707.956 1422.7,706.394C1419.67,704.831 1416.37,704.05 1412.79,704.05C1406.6,704.05 1401.36,706.703 1397.07,712.009C1392.77,717.315 1390.62,724.33 1390.62,733.054C1390.62,741.713 1392.77,748.614 1397.07,753.757C1401.36,758.9 1406.8,761.472 1413.37,761.472C1417.41,761.472 1421.27,760.414 1424.95,758.298C1428.62,756.182 1431.62,753.106 1433.93,749.07C1436.24,745.033 1437.4,740.281 1437.4,734.812ZM1261.09,1153.61L1261.09,1064.74C1244.55,1077.43 1233.42,1083.78 1227.69,1083.78C1224.95,1083.78 1222.53,1082.69 1220.41,1080.51C1218.3,1078.33 1217.24,1075.81 1217.24,1072.94C1217.24,1069.62 1218.28,1067.18 1220.36,1065.62C1222.45,1064.06 1226.12,1062.04 1231.4,1059.56C1239.28,1055.85 1245.57,1051.94 1250.29,1047.84C1255.02,1043.74 1259.2,1039.15 1262.84,1034.07C1266.49,1029 1268.87,1025.87 1269.97,1024.7C1271.08,1023.53 1273.16,1022.94 1276.22,1022.94C1279.67,1022.94 1282.44,1024.28 1284.52,1026.94C1286.61,1029.62 1287.65,1033.29 1287.65,1037.98L1287.65,1149.8C1287.65,1162.88 1283.19,1169.43 1274.27,1169.43C1270.3,1169.43 1267.11,1168.09 1264.7,1165.42C1262.29,1162.75 1261.09,1158.81 1261.09,1153.61ZM1432.86,1096.77C1432.86,1107.45 1432.21,1116.63 1430.91,1124.31C1429.61,1131.99 1427.2,1138.96 1423.68,1145.21C1419.26,1152.89 1413.53,1158.81 1406.5,1162.98C1399.46,1167.15 1391.65,1169.23 1383.06,1169.23C1373.16,1169.23 1364.29,1166.43 1356.45,1160.83C1348.6,1155.23 1342.69,1147.49 1338.72,1137.59C1336.7,1132.19 1335.22,1126.21 1334.28,1119.67C1333.34,1113.13 1332.86,1106.05 1332.86,1098.43C1332.86,1088.6 1333.38,1079.75 1334.42,1071.87C1335.47,1063.99 1337.1,1057.22 1339.31,1051.56C1343.15,1042.18 1348.73,1035.03 1356.06,1030.12C1363.38,1025.2 1372.12,1022.75 1382.28,1022.75C1388.98,1022.75 1395.07,1023.84 1400.54,1026.02C1406.01,1028.2 1410.81,1031.39 1414.94,1035.59C1419.08,1039.79 1422.58,1044.98 1425.44,1051.16C1430.39,1061.91 1432.86,1077.11 1432.86,1096.77ZM1406.11,1094.82C1406.11,1082.9 1405.39,1073.15 1403.96,1065.57C1402.52,1057.98 1400.12,1052.25 1396.73,1048.38C1393.35,1044.51 1388.66,1042.57 1382.67,1042.57C1374.07,1042.57 1368.1,1046.9 1364.75,1055.56C1361.39,1064.22 1359.72,1077.56 1359.72,1095.6C1359.72,1107.84 1360.43,1117.86 1361.87,1125.68C1363.3,1133.49 1365.71,1139.4 1369.09,1143.4C1372.48,1147.4 1377.07,1149.41 1382.86,1149.41C1388.85,1149.41 1393.54,1147.32 1396.92,1143.16C1400.31,1138.99 1402.69,1133.03 1404.05,1125.29C1405.42,1117.54 1406.11,1107.38 1406.11,1094.82ZM1013.58,1410.68L1013.58,1321.82C997.046,1334.51 985.913,1340.86 980.184,1340.86C977.45,1340.86 975.025,1339.77 972.909,1337.59C970.793,1335.4 969.735,1332.88 969.735,1330.02C969.735,1326.7 970.776,1324.26 972.86,1322.69C974.943,1321.13 978.622,1319.11 983.895,1316.64C991.773,1312.93 998.071,1309.02 1002.79,1304.92C1007.51,1300.82 1011.69,1296.23 1015.34,1291.15C1018.99,1286.07 1021.36,1282.95 1022.47,1281.78C1023.58,1280.6 1025.66,1280.02 1028.72,1280.02C1032.17,1280.02 1034.94,1281.35 1037.02,1284.02C1039.1,1286.69 1040.14,1290.37 1040.14,1295.06L1040.14,1406.87C1040.14,1419.96 1035.68,1426.5 1026.77,1426.5C1022.8,1426.5 1019.61,1425.17 1017.2,1422.5C1014.79,1419.83 1013.58,1415.89 1013.58,1410.68ZM1132.43,1410.68L1132.43,1321.82C1115.89,1334.51 1104.76,1340.86 1099.03,1340.86C1096.3,1340.86 1093.87,1339.77 1091.76,1337.59C1089.64,1335.4 1088.58,1332.88 1088.58,1330.02C1088.58,1326.7 1089.62,1324.26 1091.71,1322.69C1093.79,1321.13 1097.47,1319.11 1102.74,1316.64C1110.62,1312.93 1116.92,1309.02 1121.64,1304.92C1126.36,1300.82 1130.54,1296.23 1134.19,1291.15C1137.83,1286.07 1140.21,1282.95 1141.32,1281.78C1142.42,1280.6 1144.51,1280.02 1147.57,1280.02C1151.02,1280.02 1153.78,1281.35 1155.87,1284.02C1157.95,1286.69 1158.99,1290.37 1158.99,1295.06L1158.99,1406.87C1158.99,1419.96 1154.53,1426.5 1145.61,1426.5C1141.64,1426.5 1138.45,1425.17 1136.04,1422.5C1133.63,1419.83 1132.43,1415.89 1132.43,1410.68Z" style="fill:rgb(34,34,34);"/>
</svg>
