<?xml version="1.0" encoding="UTF-8" standalone="no"?>
<!DOCTYPE svg PUBLIC "-//W3C//DTD SVG 1.1//EN" "http://www.w3.org/Graphics/SVG/1.1/DTD/svg11.dtd">
<svg width="100%" height="100%" viewBox="0 0 772 256" version="1.1" xmlns="http://www.w3.org/2000/svg" xmlns:xlink="http://www.w3.org/1999/xlink" xml:space="preserve" xmlns:serif="http://www.serif.com/" style="fill-rule:evenodd;clip-rule:evenodd;stroke-linecap:round;stroke-linejoin:round;stroke-miterlimit:1.5;">
    <path d="M705.362,44.241C676.785,44.241 652.581,63.324 644.824,89.414C637.985,86.871 630.593,85.481 622.879,85.481C615.167,85.481 607.773,86.871 600.935,89.413C593.178,63.322 568.976,44.241 540.4,44.241C523.16,44.241 507.517,51.194 496.112,62.433C479.352,50.961 459.096,44.24 437.299,44.24L375.438,44.24C374.563,44.24 373.691,44.258 372.824,44.293C363.916,20.211 340.72,3 313.58,3C285.001,3 260.811,22.091 253.056,48.184C246.214,45.638 238.817,44.24 231.099,44.24L107.379,44.24C49.824,44.24 3,91.064 3,148.618C3,206.175 49.824,252.999 107.379,252.999L169.24,252.999C180.47,252.999 191.023,250.054 200.17,244.892C209.316,250.054 219.869,252.999 231.1,252.999C246.854,252.999 261.267,247.186 272.34,237.61C283.413,247.186 297.825,252.999 313.579,252.999L437.3,252.999C462.204,252.999 485.096,244.228 503.058,229.617C518.118,244.081 538.54,252.999 561.02,252.999L684.741,252.999C730.928,252.999 768.503,215.425 768.503,169.241L768.504,107.379C768.5,72.565 740.176,44.241 705.362,44.241ZM251.718,189.862C251.718,201.25 242.486,210.481 231.097,210.481C219.709,210.481 210.477,201.25 210.477,189.862L210.477,128.001L107.377,128.001C95.989,128.001 86.757,137.232 86.757,148.62C86.757,160.009 95.989,169.241 107.377,169.241L169.238,169.242C180.625,169.242 189.857,178.474 189.857,189.861C189.857,201.25 180.625,210.481 169.238,210.481L107.377,210.481C73.213,210.481 45.517,182.786 45.517,148.62C45.517,114.457 73.213,86.761 107.377,86.761L231.097,86.761C242.486,86.761 251.718,95.993 251.718,107.381L251.718,189.862ZM725.98,169.241C725.98,192.015 707.515,210.48 684.738,210.48L561.017,210.48C538.244,210.48 519.779,192.015 519.779,169.241L519.779,107.38C519.779,95.992 529.01,86.76 540.399,86.76C551.787,86.76 561.018,95.992 561.018,107.38L561.018,169.241L602.258,169.241L602.258,148.619C602.258,137.231 611.49,128 622.878,128C634.266,128 643.498,137.231 643.498,148.619L643.498,169.241L684.737,169.241L684.74,107.38C684.74,95.992 693.972,86.76 705.361,86.76C716.749,86.76 725.98,95.992 725.98,107.38C725.981,107.39 725.98,169.241 725.98,169.241ZM437.297,210.481L313.576,210.481C302.188,210.481 292.956,201.25 292.956,189.861L292.957,66.141C292.957,54.753 302.19,45.521 313.578,45.521C324.967,45.521 334.198,54.753 334.198,66.141L334.197,169.242L437.297,169.242C448.684,169.242 457.917,160.01 457.917,148.62C457.917,137.233 448.684,128.002 437.297,128.002L375.438,128.001C364.049,128.001 354.817,118.769 354.817,107.381C354.817,95.993 364.049,86.761 375.438,86.761L437.297,86.761C471.461,86.761 499.158,114.456 499.158,148.62C499.158,182.784 471.461,210.481 437.297,210.481Z" fill="currentColor"/>
    <path d="M251.718,189.862C251.718,201.25 242.486,210.481 231.097,210.481C219.709,210.481 210.477,201.25 210.477,189.862L210.477,128.001L107.377,128.001C95.989,128.001 86.757,137.232 86.757,148.62C86.757,160.009 95.989,169.241 107.377,169.241L169.238,169.242C180.625,169.242 189.857,178.474 189.857,189.861C189.857,201.25 180.625,210.481 169.238,210.481L107.377,210.481C73.213,210.481 45.517,182.786 45.517,148.62C45.517,114.457 73.213,86.761 107.377,86.761L231.097,86.761C242.486,86.761 251.718,95.993 251.718,107.381L251.718,189.862Z" style="fill:white;"/>
    <path d="M725.98,169.241C725.98,192.015 707.515,210.48 684.738,210.48L561.017,210.48C538.244,210.48 519.779,192.015 519.779,169.241L519.779,107.38C519.779,95.992 529.01,86.76 540.399,86.76C551.787,86.76 561.018,95.992 561.018,107.38L561.018,169.241L602.258,169.241L602.258,148.619C602.258,137.231 611.49,128 622.878,128C634.266,128 643.498,137.231 643.498,148.619L643.498,169.241L684.737,169.241L684.74,107.38C684.74,95.992 693.972,86.76 705.361,86.76C716.749,86.76 725.98,95.992 725.98,107.38C725.981,107.39 725.98,169.241 725.98,169.241Z" style="fill:white;"/>
    <path d="M437.297,210.481L313.576,210.481C302.188,210.481 292.956,201.25 292.956,189.861L292.957,66.141C292.957,54.753 302.19,45.521 313.578,45.521C324.967,45.521 334.198,54.753 334.198,66.141L334.197,169.242L437.297,169.242C448.684,169.242 457.917,160.01 457.917,148.62C457.917,137.233 448.684,128.002 437.297,128.002L375.438,128.001C364.049,128.001 354.817,118.769 354.817,107.381C354.817,95.993 364.049,86.761 375.438,86.761L437.297,86.761C471.461,86.761 499.158,114.456 499.158,148.62C499.158,182.784 471.461,210.481 437.297,210.481Z" style="fill:white;"/>
</svg>
